<svg xmlns="http://www.w3.org/2000/svg" viewBox="0 0 20 20">
  <path fill="#ffffff" d="M 1.5000003,7.5000001 C 1.5000003,6.9484375 2.5890628,6.5 3.9285716,6.5 H 16.071428 C 17.410937,6.5 18.5,6.9484375 18.5,7.5000001 V 12.499998 C 18.5,13.051563 17.410937,13.5 16.071428,13.5 H 3.9285716 c -1.3395088,0 -2.4285713,-0.448437 -2.4285713,-1.000002 z"/>
  <path d="M 17.700614,4.4621915 H 2.2993755 c -0.717187,0 -1.2993741,0.5782123 -1.2993741,1.28771 v 8.4217875 c 0,0.71229 0.5821871,1.290503 1.2993741,1.290503 H 17.703427 c 0.717187,0 1.299374,-0.578213 1.296561,-1.287708 V 5.7499015 c 0,-0.7094977 -0.582187,-1.28771 -1.299374,-1.28771 z M 10.520307,12.883981 H 8.7906209 V 9.5320244 L 7.0609346,11.68007 5.3312483,9.5320244 V 12.883981 H 3.5959371 V 7.0404043 H 5.3256233 L 7.0553096,9.1884492 8.7849959,7.0404043 h 1.7296861 v 5.8435767 z m 3.80531,0.08659 -2.595936,-3.0083802 h 1.729686 V 7.0404073 h 1.729686 v 2.9217885 h 1.729687 z" />
</svg>
